<?xml version="1.0" encoding="utf-8"?>
<!-- Generator: Adobe Illustrator 21.1.0, SVG Export Plug-In . SVG Version: 6.00 Build 0)  -->
<svg version="1.1" id="圖層_1" xmlns="http://www.w3.org/2000/svg" xmlns:xlink="http://www.w3.org/1999/xlink" x="0px" y="0px"
	 width="320px" height="100px" viewBox="0 0 320 100" style="enable-background:new 0 0 320 100;" xml:space="preserve">
<style type="text/css">
	.st0{fill:#EFEFEF;}
	.st1{fill:#CCCCCC;}
</style>
<path class="st0" d="M56,148.9h0.2c1.5,0,2.5,1.5,2,2.9l-21.7,58c-0.3,0.8-1.1,1.4-2,1.4h-0.9c-0.9,0-1.7-0.5-2-1.4l-21.6-58
	c-0.5-1.4,0.5-2.9,2-2.9h0.1c0.9,0,1.7,0.6,2,1.4l15.2,41c2.4,6.4,4,11.2,4.8,14.4c0.6-2.1,1.7-5.4,3.4-9.9L54,150.3
	C54.3,149.5,55.1,148.9,56,148.9z"/>
<path class="st0" d="M107.6,209v-57.9c0-1.2,1-2.2,2.2-2.2l0,0c1.2,0,2.2,1,2.2,2.2V209c0,1.2-1,2.2-2.2,2.2l0,0
	C108.5,211.2,107.6,210.2,107.6,209z"/>
<path class="st0" d="M183.2,211.2h-0.3c-1.1,0-2-0.9-2-2V153h-18.2c-1.1,0-2-0.9-2-2l0,0c0-1.1,0.9-2,2-2h40.7c1.1,0,2,0.9,2,2l0,0
	c0,1.1-0.9,2-2,2h-18.2v56.1C185.2,210.3,184.3,211.2,183.2,211.2z"/>
<path class="st0" d="M284.1,189.2h-25.3l-8.2,20.7c-0.3,0.8-1.1,1.3-1.9,1.3h-0.4c-1.4,0-2.4-1.5-1.9-2.8l23.4-58.4
	c0.3-0.8,1.1-1.3,1.9-1.3l0,0c0.8,0,1.6,0.5,1.9,1.3l22.9,58.4c0.5,1.3-0.5,2.8-1.9,2.8h-0.5c-0.8,0-1.6-0.5-1.9-1.3L284.1,189.2z
	 M260.4,185.3h22.3l-8.5-22.4c-0.7-1.8-1.6-4.2-2.6-7.3c-0.8,2.7-1.6,5.2-2.5,7.4L260.4,185.3z"/>
<path class="st0" d="M372.4,179.8h20.9v28.4c-6,2.6-12.8,3.8-20.3,3.8c-9.8,0-17.3-2.8-22.6-8.3c-5.2-5.5-7.9-13.4-7.9-23.6
	c0-6.3,1.3-11.9,3.9-16.8s6.3-8.7,11.2-11.3c4.8-2.7,10.4-4,16.7-4c6,0,11.4,1,16.3,2.9c1.1,0.4,1.6,1.7,1.1,2.7l-0.1,0.1
	c-0.5,1-1.6,1.5-2.6,1.1c-4.8-2-9.8-3-15-3c-8.2,0-14.7,2.5-19.5,7.6c-4.8,5.1-7.2,11.9-7.2,20.5c0,9.4,2.3,16.4,6.9,21.1
	c4.6,4.7,11.3,7.1,20.1,7.1c5.7,0,10.6-0.8,14.6-2.4v-21.9h-16.5c-1.1,0-2-0.9-2-2l0,0C370.4,180.7,371.3,179.8,372.4,179.8z"/>
<path class="st1" d="M71.2,13.5h18.3L58.2,82.3H43.8L12.4,13.5h18.8l19.8,46.2L71.2,13.5z"/>
<path class="st1" d="M93.4,82.3V13.5h18.2v68.8H93.4z"/>
<path class="st1" d="M139.4,82.3V28.2H119V13.5h59.3v14.7h-20.5v54.1L139.4,82.3L139.4,82.3z"/>
<path class="st1" d="M229.1,82.3l-6.1-14.2h-30.5l-6.1,14.2h-18.2l32.2-68.8h14.3L247,82.3H229.1z M198.4,54.5h18.8l-9.4-21.7
	L198.4,54.5z"/>
<path class="st1" d="M310.2,43.5V78c-3.7,1.7-7.8,3-12.3,3.9c-4.5,0.9-9.2,1.4-14,1.4c-7.5,0-14-1.4-19.5-4.3
	c-5.5-2.8-9.7-6.9-12.7-12.2c-3-5.3-4.4-11.6-4.4-18.9c0-7.1,1.5-13.3,4.4-18.6c3-5.3,7.2-9.4,12.6-12.3c5.4-2.9,11.7-4.3,18.9-4.3
	c5,0,9.6,0.6,14.1,1.9c4.4,1.3,8,3.1,10.8,5.3l-5.7,12.9c-3.2-2.1-6.2-3.6-9.1-4.5c-2.9-0.9-6.1-1.4-9.4-1.4
	c-6.1,0-10.7,1.7-13.7,5.2c-3,3.4-4.5,8.7-4.5,15.8c0,7.3,1.6,12.8,4.7,16.3c3.1,3.5,7.9,5.3,14.5,5.3c3,0,6.1-0.3,9.1-1V55.8h-12
	V43.5H310.2z"/>
</svg>
